<?xml version="1.0" encoding="UTF-8" standalone="no"?>
<!DOCTYPE svg PUBLIC "-//W3C//DTD SVG 1.1//EN"
 "http://www.w3.org/Graphics/SVG/1.1/DTD/svg11.dtd">
<!-- Generated by graphviz version 6.0.1 (20220911.1526)
 -->
<!-- Pages: 1 -->
<svg width="1215pt" height="548pt"
 viewBox="0.00 0.00 1215.00 548.00" xmlns="http://www.w3.org/2000/svg" xmlns:xlink="http://www.w3.org/1999/xlink">
<g id="graph0" class="graph" transform="scale(1 1) rotate(0) translate(4 544)">
<polygon fill="white" stroke="none" points="-4,4 -4,-544 1211,-544 1211,4 -4,4"/>
<!-- [root] data.dcnm_inventory.switches (expand) -->
<g id="node1" class="node">
<title>[root] data.dcnm_inventory.switches (expand)</title>
<polygon fill="none" stroke="black" points="1073,-180 891,-180 891,-144 1073,-144 1073,-180"/>
<text text-anchor="middle" x="982" y="-158.3" font-family="Times,serif" font-size="14.00">data.dcnm_inventory.switches</text>
</g>
<!-- [root] provider[&quot;registry.terraform.io/ciscodevnet/dcnm&quot;] -->
<g id="node11" class="node">
<title>[root] provider[&quot;registry.terraform.io/ciscodevnet/dcnm&quot;]</title>
<polygon fill="none" stroke="black" points="520,-108 247.86,-90 520,-72 792.14,-90 520,-108"/>
<text text-anchor="middle" x="520" y="-86.3" font-family="Times,serif" font-size="14.00">provider[&quot;registry.terraform.io/ciscodevnet/dcnm&quot;]</text>
</g>
<!-- [root] data.dcnm_inventory.switches (expand)&#45;&gt;[root] provider[&quot;registry.terraform.io/ciscodevnet/dcnm&quot;] -->
<g id="edge1" class="edge">
<title>[root] data.dcnm_inventory.switches (expand)&#45;&gt;[root] provider[&quot;registry.terraform.io/ciscodevnet/dcnm&quot;]</title>
<path fill="none" stroke="black" d="M891,-147.21C809.07,-134.8 689.41,-116.67 608.32,-104.38"/>
<polygon fill="black" stroke="black" points="608.54,-100.88 598.13,-102.84 607.49,-107.8 608.54,-100.88"/>
</g>
<!-- [root] var.switches -->
<g id="node18" class="node">
<title>[root] var.switches</title>
<polygon fill="none" stroke="black" points="1017.5,-108 940.5,-108 940.5,-72 1023.5,-72 1023.5,-102 1017.5,-108"/>
<polyline fill="none" stroke="black" points="1017.5,-108 1017.5,-102"/>
<polyline fill="none" stroke="black" points="1023.5,-102 1017.5,-102"/>
<text text-anchor="middle" x="982" y="-86.3" font-family="Times,serif" font-size="14.00">var.switches</text>
</g>
<!-- [root] data.dcnm_inventory.switches (expand)&#45;&gt;[root] var.switches -->
<g id="edge2" class="edge">
<title>[root] data.dcnm_inventory.switches (expand)&#45;&gt;[root] var.switches</title>
<path fill="none" stroke="black" d="M982,-143.7C982,-135.98 982,-126.71 982,-118.11"/>
<polygon fill="black" stroke="black" points="985.5,-118.1 982,-108.1 978.5,-118.1 985.5,-118.1"/>
</g>
<!-- [root] dcnm_interface.vpc&#45;dc1&#45;net1&#45;svr1 (expand) -->
<g id="node2" class="node">
<title>[root] dcnm_interface.vpc&#45;dc1&#45;net1&#45;svr1 (expand)</title>
<polygon fill="none" stroke="black" points="648,-324 444,-324 444,-288 648,-288 648,-324"/>
<text text-anchor="middle" x="546" y="-302.3" font-family="Times,serif" font-size="14.00">dcnm_interface.vpc&#45;dc1&#45;net1&#45;svr1</text>
</g>
<!-- [root] dcnm_interface.vpc&#45;dc1&#45;net1&#45;svr1 (expand)&#45;&gt;[root] provider[&quot;registry.terraform.io/ciscodevnet/dcnm&quot;] -->
<g id="edge3" class="edge">
<title>[root] dcnm_interface.vpc&#45;dc1&#45;net1&#45;svr1 (expand)&#45;&gt;[root] provider[&quot;registry.terraform.io/ciscodevnet/dcnm&quot;]</title>
<path fill="none" stroke="black" d="M543.67,-287.82C542.28,-277.45 540.5,-263.97 539,-252 533.13,-205.03 526.77,-150.29 523.1,-118.26"/>
<polygon fill="black" stroke="black" points="526.53,-117.47 521.92,-107.93 519.58,-118.26 526.53,-117.47"/>
</g>
<!-- [root] var.dcnm_fabric -->
<g id="node12" class="node">
<title>[root] var.dcnm_fabric</title>
<polygon fill="none" stroke="black" points="648,-252 548,-252 548,-216 654,-216 654,-246 648,-252"/>
<polyline fill="none" stroke="black" points="648,-252 648,-246"/>
<polyline fill="none" stroke="black" points="654,-246 648,-246"/>
<text text-anchor="middle" x="601" y="-230.3" font-family="Times,serif" font-size="14.00">var.dcnm_fabric</text>
</g>
<!-- [root] dcnm_interface.vpc&#45;dc1&#45;net1&#45;svr1 (expand)&#45;&gt;[root] var.dcnm_fabric -->
<g id="edge4" class="edge">
<title>[root] dcnm_interface.vpc&#45;dc1&#45;net1&#45;svr1 (expand)&#45;&gt;[root] var.dcnm_fabric</title>
<path fill="none" stroke="black" d="M559.6,-287.7C566.12,-279.39 574.07,-269.28 581.25,-260.14"/>
<polygon fill="black" stroke="black" points="584.13,-262.13 587.56,-252.1 578.63,-257.81 584.13,-262.13"/>
</g>
<!-- [root] var.pod_num -->
<g id="node17" class="node">
<title>[root] var.pod_num</title>
<polygon fill="none" stroke="black" points="755.5,-252 672.5,-252 672.5,-216 761.5,-216 761.5,-246 755.5,-252"/>
<polyline fill="none" stroke="black" points="755.5,-252 755.5,-246"/>
<polyline fill="none" stroke="black" points="761.5,-246 755.5,-246"/>
<text text-anchor="middle" x="717" y="-230.3" font-family="Times,serif" font-size="14.00">var.pod_num</text>
</g>
<!-- [root] dcnm_interface.vpc&#45;dc1&#45;net1&#45;svr1 (expand)&#45;&gt;[root] var.pod_num -->
<g id="edge5" class="edge">
<title>[root] dcnm_interface.vpc&#45;dc1&#45;net1&#45;svr1 (expand)&#45;&gt;[root] var.pod_num</title>
<path fill="none" stroke="black" d="M587.83,-287.88C611.42,-278.22 641.06,-266.09 666,-255.88"/>
<polygon fill="black" stroke="black" points="667.38,-259.1 675.3,-252.07 664.72,-252.62 667.38,-259.1"/>
</g>
<!-- [root] dcnm_interface.vpc&#45;dc1&#45;net1&#45;svr2 (expand) -->
<g id="node3" class="node">
<title>[root] dcnm_interface.vpc&#45;dc1&#45;net1&#45;svr2 (expand)</title>
<polygon fill="none" stroke="black" points="204,-324 0,-324 0,-288 204,-288 204,-324"/>
<text text-anchor="middle" x="102" y="-302.3" font-family="Times,serif" font-size="14.00">dcnm_interface.vpc&#45;dc1&#45;net1&#45;svr2</text>
</g>
<!-- [root] dcnm_interface.vpc&#45;dc1&#45;net1&#45;svr2 (expand)&#45;&gt;[root] provider[&quot;registry.terraform.io/ciscodevnet/dcnm&quot;] -->
<g id="edge6" class="edge">
<title>[root] dcnm_interface.vpc&#45;dc1&#45;net1&#45;svr2 (expand)&#45;&gt;[root] provider[&quot;registry.terraform.io/ciscodevnet/dcnm&quot;]</title>
<path fill="none" stroke="black" d="M135.5,-287.85C212.11,-248.63 399.73,-152.57 481.19,-110.87"/>
<polygon fill="black" stroke="black" points="483.28,-113.73 490.59,-106.06 480.09,-107.5 483.28,-113.73"/>
</g>
<!-- [root] dcnm_interface.vpc&#45;dc1&#45;net1&#45;svr2 (expand)&#45;&gt;[root] var.dcnm_fabric -->
<g id="edge7" class="edge">
<title>[root] dcnm_interface.vpc&#45;dc1&#45;net1&#45;svr2 (expand)&#45;&gt;[root] var.dcnm_fabric</title>
<path fill="none" stroke="black" d="M204.21,-289.28C207.17,-288.85 210.11,-288.42 213,-288 327.46,-271.42 461.13,-253.47 537.94,-243.29"/>
<polygon fill="black" stroke="black" points="538.48,-246.75 547.93,-241.97 537.56,-239.81 538.48,-246.75"/>
</g>
<!-- [root] dcnm_interface.vpc&#45;dc1&#45;net1&#45;svr2 (expand)&#45;&gt;[root] var.pod_num -->
<g id="edge8" class="edge">
<title>[root] dcnm_interface.vpc&#45;dc1&#45;net1&#45;svr2 (expand)&#45;&gt;[root] var.pod_num</title>
<path fill="none" stroke="black" d="M204.18,-289.07C207.15,-288.7 210.1,-288.34 213,-288 409.08,-265.17 464.29,-289.56 662.55,-251.79"/>
<polygon fill="black" stroke="black" points="663.26,-255.22 672.41,-249.89 661.93,-248.35 663.26,-255.22"/>
</g>
<!-- [root] dcnm_interface.vpc&#45;dc1&#45;net2&#45;svr1 (expand) -->
<g id="node4" class="node">
<title>[root] dcnm_interface.vpc&#45;dc1&#45;net2&#45;svr1 (expand)</title>
<polygon fill="none" stroke="black" points="990,-324 786,-324 786,-288 990,-288 990,-324"/>
<text text-anchor="middle" x="888" y="-302.3" font-family="Times,serif" font-size="14.00">dcnm_interface.vpc&#45;dc1&#45;net2&#45;svr1</text>
</g>
<!-- [root] dcnm_interface.vpc&#45;dc1&#45;net2&#45;svr1 (expand)&#45;&gt;[root] provider[&quot;registry.terraform.io/ciscodevnet/dcnm&quot;] -->
<g id="edge9" class="edge">
<title>[root] dcnm_interface.vpc&#45;dc1&#45;net2&#45;svr1 (expand)&#45;&gt;[root] provider[&quot;registry.terraform.io/ciscodevnet/dcnm&quot;]</title>
<path fill="none" stroke="black" d="M867.51,-287.71C844.6,-268.83 805.99,-238.31 770,-216 700.84,-173.13 615.01,-132.78 564.03,-110.06"/>
<polygon fill="black" stroke="black" points="565.18,-106.74 554.62,-105.88 562.35,-113.14 565.18,-106.74"/>
</g>
<!-- [root] dcnm_interface.vpc&#45;dc1&#45;net2&#45;svr1 (expand)&#45;&gt;[root] var.dcnm_fabric -->
<g id="edge10" class="edge">
<title>[root] dcnm_interface.vpc&#45;dc1&#45;net2&#45;svr1 (expand)&#45;&gt;[root] var.dcnm_fabric</title>
<path fill="none" stroke="black" d="M812.58,-287.95C771.29,-278.45 719,-266.15 664,-252.21"/>
<polygon fill="black" stroke="black" points="664.62,-248.76 654.07,-249.69 662.89,-255.54 664.62,-248.76"/>
</g>
<!-- [root] dcnm_interface.vpc&#45;dc1&#45;net2&#45;svr1 (expand)&#45;&gt;[root] var.pod_num -->
<g id="edge11" class="edge">
<title>[root] dcnm_interface.vpc&#45;dc1&#45;net2&#45;svr1 (expand)&#45;&gt;[root] var.pod_num</title>
<path fill="none" stroke="black" d="M846.17,-287.88C822.58,-278.22 792.94,-266.09 768,-255.88"/>
<polygon fill="black" stroke="black" points="769.28,-252.62 758.7,-252.07 766.62,-259.1 769.28,-252.62"/>
</g>
<!-- [root] dcnm_interface.vpc&#45;dc2&#45;net1&#45;svr1 (expand) -->
<g id="node5" class="node">
<title>[root] dcnm_interface.vpc&#45;dc2&#45;net1&#45;svr1 (expand)</title>
<polygon fill="none" stroke="black" points="426,-324 222,-324 222,-288 426,-288 426,-324"/>
<text text-anchor="middle" x="324" y="-302.3" font-family="Times,serif" font-size="14.00">dcnm_interface.vpc&#45;dc2&#45;net1&#45;svr1</text>
</g>
<!-- [root] dcnm_interface.vpc&#45;dc2&#45;net1&#45;svr1 (expand)&#45;&gt;[root] provider[&quot;registry.terraform.io/ciscodevnet/dcnm&quot;] -->
<g id="edge12" class="edge">
<title>[root] dcnm_interface.vpc&#45;dc2&#45;net1&#45;svr1 (expand)&#45;&gt;[root] provider[&quot;registry.terraform.io/ciscodevnet/dcnm&quot;]</title>
<path fill="none" stroke="black" d="M339.71,-287.85C374.6,-249.75 458.6,-158.03 498.4,-114.58"/>
<polygon fill="black" stroke="black" points="501.12,-116.8 505.29,-107.06 495.96,-112.07 501.12,-116.8"/>
</g>
<!-- [root] dcnm_interface.vpc&#45;dc2&#45;net1&#45;svr1 (expand)&#45;&gt;[root] var.dcnm_fabric -->
<g id="edge13" class="edge">
<title>[root] dcnm_interface.vpc&#45;dc2&#45;net1&#45;svr1 (expand)&#45;&gt;[root] var.dcnm_fabric</title>
<path fill="none" stroke="black" d="M391.41,-287.97C435.98,-276.7 494.03,-262.03 537.73,-250.99"/>
<polygon fill="black" stroke="black" points="538.83,-254.32 547.67,-248.48 537.11,-247.53 538.83,-254.32"/>
</g>
<!-- [root] dcnm_interface.vpc&#45;dc2&#45;net1&#45;svr1 (expand)&#45;&gt;[root] var.pod_num -->
<g id="edge14" class="edge">
<title>[root] dcnm_interface.vpc&#45;dc2&#45;net1&#45;svr1 (expand)&#45;&gt;[root] var.pod_num</title>
<path fill="none" stroke="black" d="M426.08,-289.23C512.31,-275.88 626.37,-258.15 662.39,-251.6"/>
<polygon fill="black" stroke="black" points="663.23,-255 672.35,-249.62 661.86,-248.14 663.23,-255"/>
</g>
<!-- [root] dcnm_network.net&#45;1 (expand) -->
<g id="node6" class="node">
<title>[root] dcnm_network.net&#45;1 (expand)</title>
<polygon fill="none" stroke="black" points="611,-396 481,-396 481,-360 611,-360 611,-396"/>
<text text-anchor="middle" x="546" y="-374.3" font-family="Times,serif" font-size="14.00">dcnm_network.net&#45;1</text>
</g>
<!-- [root] dcnm_network.net&#45;1 (expand)&#45;&gt;[root] dcnm_interface.vpc&#45;dc1&#45;net1&#45;svr1 (expand) -->
<g id="edge15" class="edge">
<title>[root] dcnm_network.net&#45;1 (expand)&#45;&gt;[root] dcnm_interface.vpc&#45;dc1&#45;net1&#45;svr1 (expand)</title>
<path fill="none" stroke="black" d="M546,-359.7C546,-351.98 546,-342.71 546,-334.11"/>
<polygon fill="black" stroke="black" points="549.5,-334.1 546,-324.1 542.5,-334.1 549.5,-334.1"/>
</g>
<!-- [root] dcnm_network.net&#45;1 (expand)&#45;&gt;[root] dcnm_interface.vpc&#45;dc1&#45;net1&#45;svr2 (expand) -->
<g id="edge16" class="edge">
<title>[root] dcnm_network.net&#45;1 (expand)&#45;&gt;[root] dcnm_interface.vpc&#45;dc1&#45;net1&#45;svr2 (expand)</title>
<path fill="none" stroke="black" d="M480.96,-366.75C411.06,-355.73 298.65,-338 214.38,-324.72"/>
<polygon fill="black" stroke="black" points="214.67,-321.22 204.25,-323.12 213.58,-328.13 214.67,-321.22"/>
</g>
<!-- [root] dcnm_network.net&#45;1 (expand)&#45;&gt;[root] dcnm_interface.vpc&#45;dc2&#45;net1&#45;svr1 (expand) -->
<g id="edge17" class="edge">
<title>[root] dcnm_network.net&#45;1 (expand)&#45;&gt;[root] dcnm_interface.vpc&#45;dc2&#45;net1&#45;svr1 (expand)</title>
<path fill="none" stroke="black" d="M491.98,-359.97C460.55,-350.06 420.77,-337.51 387.81,-327.12"/>
<polygon fill="black" stroke="black" points="388.86,-323.78 378.27,-324.11 386.75,-330.46 388.86,-323.78"/>
</g>
<!-- [root] dcnm_vrf.vrf&#45;1 (expand) -->
<g id="node8" class="node">
<title>[root] dcnm_vrf.vrf&#45;1 (expand)</title>
<polygon fill="none" stroke="black" points="767.5,-324 666.5,-324 666.5,-288 767.5,-288 767.5,-324"/>
<text text-anchor="middle" x="717" y="-302.3" font-family="Times,serif" font-size="14.00">dcnm_vrf.vrf&#45;1</text>
</g>
<!-- [root] dcnm_network.net&#45;1 (expand)&#45;&gt;[root] dcnm_vrf.vrf&#45;1 (expand) -->
<g id="edge18" class="edge">
<title>[root] dcnm_network.net&#45;1 (expand)&#45;&gt;[root] dcnm_vrf.vrf&#45;1 (expand)</title>
<path fill="none" stroke="black" d="M587.83,-359.88C611.42,-350.22 641.06,-338.09 666,-327.88"/>
<polygon fill="black" stroke="black" points="667.38,-331.1 675.3,-324.07 664.72,-324.62 667.38,-331.1"/>
</g>
<!-- [root] dcnm_network.net&#45;2 (expand) -->
<g id="node7" class="node">
<title>[root] dcnm_network.net&#45;2 (expand)</title>
<polygon fill="none" stroke="black" points="875,-396 745,-396 745,-360 875,-360 875,-396"/>
<text text-anchor="middle" x="810" y="-374.3" font-family="Times,serif" font-size="14.00">dcnm_network.net&#45;2</text>
</g>
<!-- [root] dcnm_network.net&#45;2 (expand)&#45;&gt;[root] dcnm_interface.vpc&#45;dc1&#45;net2&#45;svr1 (expand) -->
<g id="edge19" class="edge">
<title>[root] dcnm_network.net&#45;2 (expand)&#45;&gt;[root] dcnm_interface.vpc&#45;dc1&#45;net2&#45;svr1 (expand)</title>
<path fill="none" stroke="black" d="M829.28,-359.7C838.92,-351.05 850.73,-340.45 861.23,-331.03"/>
<polygon fill="black" stroke="black" points="863.84,-333.39 868.94,-324.1 859.16,-328.18 863.84,-333.39"/>
</g>
<!-- [root] dcnm_network.net&#45;2 (expand)&#45;&gt;[root] dcnm_vrf.vrf&#45;1 (expand) -->
<g id="edge20" class="edge">
<title>[root] dcnm_network.net&#45;2 (expand)&#45;&gt;[root] dcnm_vrf.vrf&#45;1 (expand)</title>
<path fill="none" stroke="black" d="M787.01,-359.7C775.19,-350.8 760.61,-339.82 747.82,-330.2"/>
<polygon fill="black" stroke="black" points="749.82,-327.32 739.72,-324.1 745.61,-332.91 749.82,-327.32"/>
</g>
<!-- [root] dcnm_vrf.vrf&#45;1 (expand)&#45;&gt;[root] var.dcnm_fabric -->
<g id="edge22" class="edge">
<title>[root] dcnm_vrf.vrf&#45;1 (expand)&#45;&gt;[root] var.dcnm_fabric</title>
<path fill="none" stroke="black" d="M688.62,-287.88C673.46,-278.72 654.59,-267.34 638.26,-257.48"/>
<polygon fill="black" stroke="black" points="639.86,-254.36 629.49,-252.19 636.24,-260.35 639.86,-254.36"/>
</g>
<!-- [root] dcnm_vrf.vrf&#45;1 (expand)&#45;&gt;[root] var.pod_num -->
<g id="edge23" class="edge">
<title>[root] dcnm_vrf.vrf&#45;1 (expand)&#45;&gt;[root] var.pod_num</title>
<path fill="none" stroke="black" d="M717,-287.7C717,-279.98 717,-270.71 717,-262.11"/>
<polygon fill="black" stroke="black" points="720.5,-262.1 717,-252.1 713.5,-262.1 720.5,-262.1"/>
</g>
<!-- [root] local.serial_numbers (expand) -->
<g id="node19" class="node">
<title>[root] local.serial_numbers (expand)</title>
<ellipse fill="none" stroke="black" cx="1033" cy="-234" rx="140.28" ry="18"/>
<text text-anchor="middle" x="1033" y="-230.3" font-family="Times,serif" font-size="14.00">[root] local.serial_numbers (expand)</text>
</g>
<!-- [root] dcnm_vrf.vrf&#45;1 (expand)&#45;&gt;[root] local.serial_numbers (expand) -->
<g id="edge21" class="edge">
<title>[root] dcnm_vrf.vrf&#45;1 (expand)&#45;&gt;[root] local.serial_numbers (expand)</title>
<path fill="none" stroke="black" d="M767.67,-290.37C770.82,-289.54 773.95,-288.75 777,-288 833.4,-274.19 897.36,-260.95 947.25,-251.15"/>
<polygon fill="black" stroke="black" points="948.21,-254.53 957.35,-249.18 946.86,-247.66 948.21,-254.53"/>
</g>
<!-- [root] dcnm_vrf.vrf&#45;2 (expand) -->
<g id="node9" class="node">
<title>[root] dcnm_vrf.vrf&#45;2 (expand)</title>
<polygon fill="none" stroke="black" points="1109.5,-324 1008.5,-324 1008.5,-288 1109.5,-288 1109.5,-324"/>
<text text-anchor="middle" x="1059" y="-302.3" font-family="Times,serif" font-size="14.00">dcnm_vrf.vrf&#45;2</text>
</g>
<!-- [root] dcnm_vrf.vrf&#45;2 (expand)&#45;&gt;[root] var.dcnm_fabric -->
<g id="edge25" class="edge">
<title>[root] dcnm_vrf.vrf&#45;2 (expand)&#45;&gt;[root] var.dcnm_fabric</title>
<path fill="none" stroke="black" d="M1008.41,-290.01C1005.24,-289.28 1002.08,-288.6 999,-288 854.72,-260.04 812.38,-279.09 664.22,-252.05"/>
<polygon fill="black" stroke="black" points="664.78,-248.59 654.31,-250.2 663.5,-255.48 664.78,-248.59"/>
</g>
<!-- [root] dcnm_vrf.vrf&#45;2 (expand)&#45;&gt;[root] var.pod_num -->
<g id="edge26" class="edge">
<title>[root] dcnm_vrf.vrf&#45;2 (expand)&#45;&gt;[root] var.pod_num</title>
<path fill="none" stroke="black" d="M1008.34,-290.3C1005.19,-289.49 1002.06,-288.72 999,-288 920.55,-269.55 828.62,-253.25 771.59,-243.76"/>
<polygon fill="black" stroke="black" points="772.14,-240.3 761.71,-242.12 771,-247.21 772.14,-240.3"/>
</g>
<!-- [root] dcnm_vrf.vrf&#45;2 (expand)&#45;&gt;[root] local.serial_numbers (expand) -->
<g id="edge24" class="edge">
<title>[root] dcnm_vrf.vrf&#45;2 (expand)&#45;&gt;[root] local.serial_numbers (expand)</title>
<path fill="none" stroke="black" d="M1052.57,-287.7C1049.64,-279.81 1046.11,-270.3 1042.86,-261.55"/>
<polygon fill="black" stroke="black" points="1046.12,-260.26 1039.35,-252.1 1039.55,-262.7 1046.12,-260.26"/>
</g>
<!-- [root] output.serial_numbers -->
<g id="node10" class="node">
<title>[root] output.serial_numbers</title>
<polygon fill="none" stroke="black" points="1201,-468 1069,-468 1069,-432 1207,-432 1207,-462 1201,-468"/>
<polyline fill="none" stroke="black" points="1201,-468 1201,-462"/>
<polyline fill="none" stroke="black" points="1207,-462 1201,-462"/>
<text text-anchor="middle" x="1138" y="-446.3" font-family="Times,serif" font-size="14.00">output.serial_numbers</text>
</g>
<!-- [root] output.serial_numbers&#45;&gt;[root] local.serial_numbers (expand) -->
<g id="edge28" class="edge">
<title>[root] output.serial_numbers&#45;&gt;[root] local.serial_numbers (expand)</title>
<path fill="none" stroke="black" d="M1140.54,-431.9C1144.26,-400.63 1147.92,-333.32 1119,-288 1110.49,-274.66 1097.29,-264.14 1083.77,-256.11"/>
<polygon fill="black" stroke="black" points="1085.33,-252.97 1074.88,-251.18 1081.94,-259.09 1085.33,-252.97"/>
</g>
<!-- [root] var.dcnm_password -->
<g id="node13" class="node">
<title>[root] var.dcnm_password</title>
<polygon fill="none" stroke="black" points="396.5,-36 277.5,-36 277.5,0 402.5,0 402.5,-30 396.5,-36"/>
<polyline fill="none" stroke="black" points="396.5,-36 396.5,-30"/>
<polyline fill="none" stroke="black" points="402.5,-30 396.5,-30"/>
<text text-anchor="middle" x="340" y="-14.3" font-family="Times,serif" font-size="14.00">var.dcnm_password</text>
</g>
<!-- [root] provider[&quot;registry.terraform.io/ciscodevnet/dcnm&quot;]&#45;&gt;[root] var.dcnm_password -->
<g id="edge32" class="edge">
<title>[root] provider[&quot;registry.terraform.io/ciscodevnet/dcnm&quot;]&#45;&gt;[root] var.dcnm_password</title>
<path fill="none" stroke="black" d="M482.27,-74.33C456.52,-64.31 422.04,-50.9 393.47,-39.79"/>
<polygon fill="black" stroke="black" points="394.62,-36.48 384.03,-36.12 392.08,-43.01 394.62,-36.48"/>
</g>
<!-- [root] var.dcnm_url -->
<g id="node14" class="node">
<title>[root] var.dcnm_url</title>
<polygon fill="none" stroke="black" points="503.5,-36 420.5,-36 420.5,0 509.5,0 509.5,-30 503.5,-36"/>
<polyline fill="none" stroke="black" points="503.5,-36 503.5,-30"/>
<polyline fill="none" stroke="black" points="509.5,-30 503.5,-30"/>
<text text-anchor="middle" x="465" y="-14.3" font-family="Times,serif" font-size="14.00">var.dcnm_url</text>
</g>
<!-- [root] provider[&quot;registry.terraform.io/ciscodevnet/dcnm&quot;]&#45;&gt;[root] var.dcnm_url -->
<g id="edge33" class="edge">
<title>[root] provider[&quot;registry.terraform.io/ciscodevnet/dcnm&quot;]&#45;&gt;[root] var.dcnm_url</title>
<path fill="none" stroke="black" d="M507.24,-72.76C500.57,-64.27 492.25,-53.68 484.76,-44.15"/>
<polygon fill="black" stroke="black" points="487.38,-41.82 478.45,-36.12 481.88,-46.15 487.38,-41.82"/>
</g>
<!-- [root] var.dcnm_user -->
<g id="node15" class="node">
<title>[root] var.dcnm_user</title>
<polygon fill="none" stroke="black" points="618.5,-36 527.5,-36 527.5,0 624.5,0 624.5,-30 618.5,-36"/>
<polyline fill="none" stroke="black" points="618.5,-36 618.5,-30"/>
<polyline fill="none" stroke="black" points="624.5,-30 618.5,-30"/>
<text text-anchor="middle" x="576" y="-14.3" font-family="Times,serif" font-size="14.00">var.dcnm_user</text>
</g>
<!-- [root] provider[&quot;registry.terraform.io/ciscodevnet/dcnm&quot;]&#45;&gt;[root] var.dcnm_user -->
<g id="edge34" class="edge">
<title>[root] provider[&quot;registry.terraform.io/ciscodevnet/dcnm&quot;]&#45;&gt;[root] var.dcnm_user</title>
<path fill="none" stroke="black" d="M532.99,-72.76C539.79,-64.27 548.26,-53.68 555.88,-44.15"/>
<polygon fill="black" stroke="black" points="558.79,-46.12 562.3,-36.12 553.32,-41.75 558.79,-46.12"/>
</g>
<!-- [root] var.platform -->
<g id="node16" class="node">
<title>[root] var.platform</title>
<polygon fill="none" stroke="black" points="721,-36 643,-36 643,0 727,0 727,-30 721,-36"/>
<polyline fill="none" stroke="black" points="721,-36 721,-30"/>
<polyline fill="none" stroke="black" points="727,-30 721,-30"/>
<text text-anchor="middle" x="685" y="-14.3" font-family="Times,serif" font-size="14.00">var.platform</text>
</g>
<!-- [root] provider[&quot;registry.terraform.io/ciscodevnet/dcnm&quot;]&#45;&gt;[root] var.platform -->
<g id="edge35" class="edge">
<title>[root] provider[&quot;registry.terraform.io/ciscodevnet/dcnm&quot;]&#45;&gt;[root] var.platform</title>
<path fill="none" stroke="black" d="M554.99,-74.15C578.41,-64.22 609.59,-50.99 635.53,-39.99"/>
<polygon fill="black" stroke="black" points="637,-43.17 644.83,-36.04 634.26,-36.72 637,-43.17"/>
</g>
<!-- [root] local.serial_numbers (expand)&#45;&gt;[root] data.dcnm_inventory.switches (expand) -->
<g id="edge27" class="edge">
<title>[root] local.serial_numbers (expand)&#45;&gt;[root] data.dcnm_inventory.switches (expand)</title>
<path fill="none" stroke="black" d="M1020.65,-216.05C1014.61,-207.75 1007.2,-197.58 1000.49,-188.38"/>
<polygon fill="black" stroke="black" points="1003.3,-186.3 994.59,-180.28 997.65,-190.42 1003.3,-186.3"/>
</g>
<!-- [root] provider[&quot;registry.terraform.io/ciscodevnet/dcnm&quot;] (close) -->
<g id="node20" class="node">
<title>[root] provider[&quot;registry.terraform.io/ciscodevnet/dcnm&quot;] (close)</title>
<ellipse fill="none" stroke="black" cx="810" cy="-450" rx="241.26" ry="18"/>
<text text-anchor="middle" x="810" y="-446.3" font-family="Times,serif" font-size="14.00">[root] provider[&quot;registry.terraform.io/ciscodevnet/dcnm&quot;] (close)</text>
</g>
<!-- [root] provider[&quot;registry.terraform.io/ciscodevnet/dcnm&quot;] (close)&#45;&gt;[root] dcnm_network.net&#45;1 (expand) -->
<g id="edge29" class="edge">
<title>[root] provider[&quot;registry.terraform.io/ciscodevnet/dcnm&quot;] (close)&#45;&gt;[root] dcnm_network.net&#45;1 (expand)</title>
<path fill="none" stroke="black" d="M748.1,-432.59C709.81,-422.43 660.42,-409.34 620.05,-398.64"/>
<polygon fill="black" stroke="black" points="620.83,-395.22 610.27,-396.04 619.03,-401.99 620.83,-395.22"/>
</g>
<!-- [root] provider[&quot;registry.terraform.io/ciscodevnet/dcnm&quot;] (close)&#45;&gt;[root] dcnm_network.net&#45;2 (expand) -->
<g id="edge30" class="edge">
<title>[root] provider[&quot;registry.terraform.io/ciscodevnet/dcnm&quot;] (close)&#45;&gt;[root] dcnm_network.net&#45;2 (expand)</title>
<path fill="none" stroke="black" d="M810,-431.7C810,-423.98 810,-414.71 810,-406.11"/>
<polygon fill="black" stroke="black" points="813.5,-406.1 810,-396.1 806.5,-406.1 813.5,-406.1"/>
</g>
<!-- [root] provider[&quot;registry.terraform.io/ciscodevnet/dcnm&quot;] (close)&#45;&gt;[root] dcnm_vrf.vrf&#45;2 (expand) -->
<g id="edge31" class="edge">
<title>[root] provider[&quot;registry.terraform.io/ciscodevnet/dcnm&quot;] (close)&#45;&gt;[root] dcnm_vrf.vrf&#45;2 (expand)</title>
<path fill="none" stroke="black" d="M840.04,-431.87C885.09,-406.18 970.18,-357.65 1019.99,-329.25"/>
<polygon fill="black" stroke="black" points="1021.91,-332.18 1028.86,-324.19 1018.44,-326.1 1021.91,-332.18"/>
</g>
<!-- [root] root -->
<g id="node21" class="node">
<title>[root] root</title>
<ellipse fill="none" stroke="black" cx="974" cy="-522" rx="47.39" ry="18"/>
<text text-anchor="middle" x="974" y="-518.3" font-family="Times,serif" font-size="14.00">[root] root</text>
</g>
<!-- [root] root&#45;&gt;[root] output.serial_numbers -->
<g id="edge36" class="edge">
<title>[root] root&#45;&gt;[root] output.serial_numbers</title>
<path fill="none" stroke="black" d="M1004.46,-508C1028.08,-497.92 1061.28,-483.74 1088.68,-472.05"/>
<polygon fill="black" stroke="black" points="1090.27,-475.18 1098.1,-468.03 1087.53,-468.74 1090.27,-475.18"/>
</g>
<!-- [root] root&#45;&gt;[root] provider[&quot;registry.terraform.io/ciscodevnet/dcnm&quot;] (close) -->
<g id="edge37" class="edge">
<title>[root] root&#45;&gt;[root] provider[&quot;registry.terraform.io/ciscodevnet/dcnm&quot;] (close)</title>
<path fill="none" stroke="black" d="M943.54,-508C919.76,-497.85 886.25,-483.55 858.75,-471.81"/>
<polygon fill="black" stroke="black" points="859.87,-468.48 849.3,-467.77 857.12,-474.92 859.87,-468.48"/>
</g>
</g>
</svg>
